<svg xmlns="http://www.w3.org/2000/svg" id="Layer_1" data-name="Layer 1" viewBox="0 0 83.02 89.26"><defs><style>.cls-1{fill:#171768}</style></defs><path d="M65.48 7.18c1.24 1.04 5.15 4.89 6.03 5.24s2.03.03 2.97.15c4.28.56 6.96 5.64 6.59 9.67-.08.9-.7 2.18-.68 2.89.03.86 1.44 4.13 1.74 5.46.64 2.85 1.28 6.77.57 9.61-1.36 5.51-6.57 1.19-10.13.91-5.37-.43-12.25 3.51-16.6 6.42-3.49 2.34-3.77 4.45-8.38 2.01-1.58-.83-2.74-2.21-4.24-3.14L25.67 61.12c-3.53 2.83-9.31.71-7.18-4.31 1.21-2.85 10.33-7.82 13.37-9.9 2.65-1.82 5.23-3.75 7.88-5.57-1.05-2.39-2.99-6.09-1.76-8.71.43-.91 4.84-4.07 5.94-5.09 3.65-3.37 12.48-12.8 3.9-15.91-6.85-2.48-18.78 1.44-24.61 5.51-25.67 17.98-17.73 56.84 10.93 67 10.14 3.59 23.26 3.32 33.12-1.07.18-.08.78-.49.53.05-4.81 2.76-10.11 4.69-15.63 5.48C29.48 91.84 7.7 77.66 2.26 55.33c-.58-2.39-.81-4.84-1.27-7.25.11-2.2-.15-4.54 0-6.72C2.5 19.83 20.45 1.55 42 .07c0 0 13.5-1.28 23.48 7.11m9.06 7.32c-.24.08-.45.3-.41.57.75.75 4.11 6.4 4.69 6.35.14-.01.43-.52.49-.7.69-2.2-2.44-6.96-4.77-6.22m-1.6 21.57c-.11-7.05-2.87-14.09-8.39-18.6-1.47-1.2-5.05-3.66-6.84-2.28-.69.53-.85 2.31-1.27 3.29-1.7 3.91-4.7 7.02-7.48 10.15.26.23 3.35-2.3 3.72-2.63 1.26-1.11 2.96-2.82 4.07-4.08s2.33-4.1 4.01-3.8c3.83.69 8.49 7.37 9.82 10.83l2.35 7.12ZM41.3 39.9c.51.71 2.36-2.38 3.96-1.44.85.5 2.31 2.73 2.28 3.74-.04 1.21-2.49 2.35-2.41 2.85 3.96 4.9 8.02 4.37 5.07-2.67-1.13-2.69-5.13-8.22-8.14-8.66-1.36-.2-2.2.49-2.16 1.92.02.54.59 3.15 1.39 4.26Z" class="cls-1"/></svg>